<svg viewBox="0 0 173 94" fill="none" xmlns="http://www.w3.org/2000/svg"><path d="M36.301 49.57l3.093-8.66 2.989 8.66H36.3zm1.1-15.668l-8.882 23.793h4.982l1.478-4.21h8.675l1.443 4.21h4.982l-8.933-23.793h-3.745zM87.564 2.36c9.312 0 18.279.653 26.646 1.89C103.747 1.965 91.997.694 79.593.694 35.65.694.02 16.688.02 36.41c0 9.895 8.985 18.863 23.467 25.322C11.718 55.496 4.623 47.473 4.623 38.729 4.606 18.698 41.73 2.412 87.564 2.36zm-30.82 55.335V43.83l4.708 9.02h3.23l4.672-9.02v13.864h4.776V33.902h-4.707l-6.356 12.867-6.39-12.867h-4.708v23.793h4.776zm25.89-23.793h-4.776v23.793h4.776V33.902zm16.75 14.43v.842c0 2.8-1.615 4.57-4.243 4.57-1.237 0-2.251-.395-2.99-1.237-.91-.997-1.15-2.302-1.15-6.047v-.67c0-2.13.102-3.711.24-4.742.069-.67.395-1.409.91-1.941.739-.842 1.787-1.271 3.058-1.271.67 0 1.34.137 1.856.343.773.327 1.185.67 2.25 1.701l3.161-3.144c-1.477-1.408-2.147-1.907-3.333-2.37-1.116-.464-2.388-.67-3.865-.67-2.732 0-4.879.841-6.597 2.61-1.855 1.873-2.353 3.78-2.353 8.522v.962c0 2.748.171 4.57.309 5.549.172 1.305.979 2.834 2.044 3.934 1.684 1.7 3.934 2.594 6.494 2.594 2.628 0 4.982-.962 6.665-2.732 1.615-1.735 2.217-3.676 2.217-7.284V44.45h-8.916v3.865h4.243v.017zm21.233-2.972c0 4.845-.206 6.013-1.202 7.112-.756.842-1.821 1.272-3.058 1.272-1.237 0-2.268-.464-3.092-1.272-1.306-1.27-1.169-4.105-1.169-7.026 0-2.938.069-5.17 1.169-6.356.756-.842 1.855-1.272 3.092-1.272s2.302.43 3.058 1.272c.962 1.065 1.202 2.37 1.202 6.27zm4.776-1.237c0-3.848-.721-6.116-2.439-7.834-1.718-1.7-3.986-2.61-6.597-2.61-2.646 0-4.913.893-6.631 2.61-1.89 1.873-2.405 3.78-2.405 8.521v1.306c0 2.646-.172 6.58 2.405 9.157 1.718 1.7 3.985 2.594 6.631 2.594 2.646 0 4.879-.86 6.597-2.594 2.611-2.646 2.439-6.082 2.439-9.483v-1.667zm13.709-9.036c-.309-.172-.034-.43.258-.498.292-.069.859-.206.825-.464-.035-.172-.104-.447-.069-.601.034-.155-.258-.43-.395-.533-.138-.12-.516-.326-.017-.653.498-.326.944.344 1.34-.051.395-.395-.241-.705-.361-1.117-.086-.258-.533-.618-.567-.928-.035-.326.343-.463.258-1.013-.069-.55-1.048-1.512-1.048-1.512.051-.447.395-.842.824-.876.241-.017.619.12.962.103.327-.017.361-.567.275-.859-.086-.292-.395-.842-.395-.842s-.636-1.34-.653-1.77c-.103-.223-.361-.618-.721-.996-.103-.12-.069-.463.326-.515.378-.034.361.344.618.687.258.344.464.31.774.292.309 0 .532-.24.824-.515.481-.687 1.787.309 2.01.258.223-.052.309-.275.309-.275s-.171-.481-.395-.808c-.24-.326-.584-.687-.584-.687s-.996-1.288-1.237-1.512c-.12-.154-1.357-1.1-1.666-1.443-.327-.343-1.374-.859-1.495-1.03-.223-.327-.24-.756.017-.894.275-.137.842.567.842.567l.533.292s.567-.137.842-.069c.257.086.463 0 .79-.034.343-.034.446-.189.859-.223.412-.035.601-.035.824.068.241.104.928 0 1.461-.085.515-.086.944.017 1.082-.31.137-.326-.361-.859-.498-.979-.138-.12-.842-.498-1.1-.79-.257-.292-.429-.601-.567-.704-.12-.104-.704-.035-1.065.171-.292.069-.189.24-.721.206-.241-.103-.808.07-1.014.258-.172.086-.55.618-1.031.515-.12-.171-.652-.12-1.082-.429-.258-.189-.876-.43-1.048-.55-.395-.257-.687.103-1.117-.034-.429-.137-1.133.103-1.322-.12-.189-.224-.035-.773-.138-.997-.103-.223-.532-.309-.584-.48-.069-.173-.275-.482-.395-.757-.12-.274.086-.6.017-.927-.069-.327-.584-.498-.584-.498s-.343-.155-.653-.052c-.292.086-.326.137-.532.43-.206.343-.361.618-.43.944-.086.43.103 1.65.258 1.873.155.223.447.36.842.447.395.085.412-.138.67-.018.292.224.618.327.773.413.154.085-1.031.24-1.615.154-.258.017-.996.258-.996.258s-.619.017-1.117.223c-.911.395-1.134 1.1-1.185 1.357-.052.258-.172.499-.344.91-.172.413-.275.963-.275.963s-.275.653-.395.842c-.12.343-.326 1.082-.326 1.082s-.207.567.188.893c.396.327.155.688-.532.584-.344 0-.653.07-.945.344-.429.481-1.117 2.061-1.117 2.061s-.274 1.323-.395 2.01c0 .344-.257 1.186-.395 1.736.035.12-.395.824-.258 1.426.327.12 1.152-.877 1.358-1.186.223-.31.841-1.804 1.048-2.165.274-.738 1.151-1.443 1.477-1.906.344-.447.086-.825.928-1.564.927-.945.721-.721.927-1.065.241-.498 1.134-.67 1.392-.704.945-.155.824.721 1.649 1.03.515.12.876.55.825.86-.052.326-.395.635-.773 1.22-.121.257.343 1.27.515 1.563.172.292.515 1.013.687 1.511.172.499.653.67 1.289.653.584-.069.962.722-.378.602-.43.017-.98.085-1.237.12-.258.034-.567.017-.962.086-.567.103-.447.652-.378.859.206.446.257.704.584 1.15.326.464.447 1.392.618 1.633.172.24-.395.412-.275.807.018.223.344.378.464.567.103.189.567.086 1.289-.172.429-.103.67.447.378.55-.206.069-.997.31-1.117.67-.12.36.43 1.15-.137 1.752-.224.172-.018 1.237.068 1.478.069.24.499.738.653.91.155.155.223 1.117.223 1.392 0 .275.052.532.344.927.12.224.326.361.395.533.069.172-.086.48-.498.344-.189-.086-.704-.07-1.031.085-.326.155-.738.74-.876 1.083-.258.55-.292 1.77-.051 2.25.12.327.377.43.429.756.052.395.086.55-.103 1.1-.052.171-.12.584-.206.962-.155 1.03 1.46 4.947 2.13 5.651.67.705 1.873 2.715 2.594 3.952.739 1.22.601.773.498 1.185-.103.395-.429.636-.841.893-.413.258-.619.98-.825 1.34-.223.378-1.289 1.392-1.323 1.58-.051.19-1.013 1.513-.481 1.822.515.292.979-.344 1.426-.567 1.168-.91 1.838-1.89 2.714-2.113.98-.326 1.34-.859 1.478-1.288.137-.413.137-.55-.103-.997-.121-.223-.241-1.03-.327-1.391-.103-.344-.618-1.031-.756-1.237-.12-.206-.412-1.856-.326-2.079.086-.223.206-.55.326-.859.121-.31-.137-.773-.36-.945-.224-.172-.481-.378-.55-.98-.086-.79.189-.617.567-.927.378-.309-.155-.653-.035-1.168.189-.79-.755-.928-1.151-1.512-.395-.584-.721-1.22-.79-1.46-.051-.24-.275-.825-.481-1.065-.206-.24-.309-.515-.223-.859.069-.36.378-.515.55-.807.154-.292-.086-.413-.155-.567-.069-.138 0-.602.309-.756.309-.155.533.051.67.189.138.137.223.326.327.979-.018.275 0 .36.377.756.378.395 1.272.807 2.199.464.155-.155.688-.275.997-.602.618-.446 1.116-.086 1.718-.137.601-.052 1.219-.034 1.58-.395.224-.223.498-.395.55-.704.034-.327.704-.705.928-.997.206-.292.137-.739-.155-.842-.309-.103-.601.258-1.082.24-.498-.016-.43-.171-.67-.308-.241-.138-.602.017-.79.275-.138.154-.722.223-.739-.31-.017-.532-.412-.704-.516-1.237-.103-.532-.532-.945-.738-1.168-.224-.223-.258-.584-.722-1.082-.464-.498-.618-.86-.962-1.048-.309-.172-.773-1.46-1.237-1.53-.532-.068-1.099.224-1.34 0zm13.211-15.908c.172-.017.516-.069.601-.258.086-.189-.326-.206-.498-.395-.154-.189-.601-.31-.945-.447-.343-.137-.756-.378-.687-.67.052-.274-.034-.515-.12-.48-.086.034-.412.068-.619.085-.189.018-.515-.034-.721-.051-.584-.086-.876-.481-.79-.722.086-.24-.103-.687-.344-.704-.24-.017-.395.378-.464.567-.068.189-.412.515-.086.996.172.155 1.151.636 1.392.756.24.12 1.907 1.048 2.319 1.185.412.104.773.155.962.138zm3.608 31.713c-.086-.172-.808-.224-.997-.12-.189.103-.532.206-.893-.275-.361-.498-.378-.516-.326-.722.051-.275.343-.137.257-.635-.051-.207-.257-.43-.412-.567-.275-.275-.344-.602-.55-.962-.206-.361-.927-.997-1.03-1.667-.104-.67-.774-.945-.962-1.597-.189-.653.601-1.255.515-1.598-.086-.327-.808-.344-.412-.687.412-.327.137-.619-.189-.55-.327.086-.533.31-.859.464-.31.137-.688.532-1.117.739-.447.206-1.031.515-.945 1.133.086.636 1.082 1.117 1.684 1.873.653.773 1.752 2.285 1.752 2.285s.533.773.67 1.22c.137.446.756 1.803.928 2.233.171.43.326 1.013 1.133 1.03.808.018 1.839-1.425 1.753-1.597zm11.699-21.92c1.907 3.057 2.938 6.27 2.938 9.585.017 20.048-37.108 36.317-82.942 36.369-13.88.017-26.971-1.46-38.464-4.089 12.489 3.66 27.418 5.79 43.463 5.79 43.945 0 79.557-15.994 79.557-35.716.018-4.192-1.597-8.212-4.552-11.94zM123.589 84.89l-.154-1.495-5.927.584.275 2.817 1.975-.188-.12-1.151 1.684-.172-2.474 7.112 2.079-.206 2.662-7.301zm-11.664 1.7a.91.91 0 01.223-.343 1.2 1.2 0 01.309-.206c.12-.052.224-.07.344-.086.309-.017.55.034.756.189.206.137.309.395.326.773.017.36-.069.635-.258.807a1.13 1.13 0 01-.687.292 1.14 1.14 0 01-.721-.189c-.206-.154-.327-.412-.344-.773a.829.829 0 01.052-.464zm-1.787 1.701c.137.31.344.55.601.756.258.206.55.344.911.43.343.085.739.085 1.168.017l.017.017-1.718 3.47 2.216-.154 2.285-4.587a2.13 2.13 0 00.241-.722c.051-.258.068-.498.034-.756-.034-.43-.137-.807-.326-1.134a2.459 2.459 0 00-.722-.79 3.21 3.21 0 00-.979-.464 3.923 3.923 0 00-1.1-.103 4.194 4.194 0 00-1.116.24 3.161 3.161 0 00-.962.568c-.275.24-.498.55-.636.927-.154.361-.223.79-.189 1.289.035.36.12.704.275.996zm-6.116-1.237c.052-.137.138-.24.224-.343.103-.086.206-.155.326-.207.12-.034.24-.068.344-.068.309-.017.549.051.755.206.189.154.31.412.327.773.017.36-.069.636-.275.807a1.16 1.16 0 01-.704.275 1.054 1.054 0 01-.722-.206c-.206-.154-.309-.412-.326-.773a.83.83 0 01.051-.464zm-1.821 1.667c.138.309.327.566.584.773.241.206.55.36.894.446.343.086.738.103 1.168.052l.017.017-1.787 3.419 2.216-.103 2.388-4.536a2.63 2.63 0 00.258-.704c.052-.24.069-.498.052-.756a2.43 2.43 0 00-.31-1.134c-.189-.326-.412-.601-.704-.807a2.813 2.813 0 00-.962-.481 3.332 3.332 0 00-1.082-.12 4.388 4.388 0 00-1.134.206c-.361.12-.687.309-.979.55-.275.24-.499.55-.67.91a2.74 2.74 0 00-.206 1.288c.034.344.12.67.257.98zM98.783 93.6l-.224-8.504-1.77.051-1.58 1.066.052 1.872 1.374-.91.172 6.493 1.975-.069zm-10.6.189l.017-1.684-4.552-.017V90.3l3.865.017.017-1.632-3.882-.017V86.95l4.552.017v-1.683l-6.614-.035-.052 8.504 6.649.034zm-10.462-2.87c-.086.31-.258.55-.533.757a1.657 1.657 0 01-1.03.274 1.6 1.6 0 01-.67-.137 1.597 1.597 0 01-.464-.326 1.577 1.577 0 01-.275-.464 1.936 1.936 0 01-.086-.55l.069-2.302c0-.172.034-.344.103-.498.068-.172.171-.31.292-.43.137-.12.292-.223.48-.292a1.96 1.96 0 01.67-.103c.43.017.774.12 1.031.326.258.207.413.464.481.756l1.976-.584a3.16 3.16 0 00-1.203-1.597c-.584-.413-1.322-.619-2.216-.653-.6-.017-1.133.051-1.597.223-.464.172-.842.395-1.151.704-.31.293-.533.653-.688 1.048-.154.395-.24.808-.257 1.255l-.052 2.01c-.017.48.052.944.19 1.357.137.412.343.773.635 1.065.292.309.653.532 1.1.704.446.172.979.275 1.58.292.876.017 1.632-.154 2.233-.515a2.963 2.963 0 001.306-1.546l-1.924-.773zm-7.49 2.526l.48-8.504-2.06-.12-.293 5.136-.034.018-1.65-2.646-1.803-2.714-1.838-.103-.482 8.503 2.062.12.292-5.136.034-.017 1.272 2.113 2.199 3.264 1.82.086zm-10.17-.618l.67-8.487-2.062-.155-.67 8.487 2.061.154zm-3.643-8.075a5.13 5.13 0 00-1.529-.773 8.143 8.143 0 00-1.683-.343 5.349 5.349 0 00-1.168.034 3.24 3.24 0 00-1.083.378 2.87 2.87 0 00-.841.739c-.224.309-.361.687-.413 1.133-.051.481 0 .876.172 1.203.155.326.395.601.705.825.309.223.652.395 1.047.532.395.138.825.24 1.272.326a3 3 0 01.653.19c.171.068.292.154.36.257.086.103.138.19.138.292.017.103.017.206.017.31-.017.223-.155.412-.412.55-.258.137-.619.188-1.066.137a5.93 5.93 0 01-1.374-.31c-.43-.154-.859-.446-1.254-.841l-1.34 1.322c.275.275.567.499.876.688.31.189.602.343.928.463.31.12.636.207.945.275.309.052.635.103.945.138.446.051.91.034 1.357-.035a3.913 3.913 0 001.22-.395c.36-.189.67-.446.927-.756.258-.309.395-.687.447-1.133.034-.43 0-.808-.12-1.117-.12-.31-.31-.584-.55-.807a2.817 2.817 0 00-.876-.55 8.588 8.588 0 00-1.065-.361c-.378-.103-.688-.172-.945-.258a2.996 2.996 0 01-.584-.223.886.886 0 01-.292-.258.563.563 0 01-.052-.343.72.72 0 01.069-.258.672.672 0 01.206-.24c.103-.07.24-.12.395-.155.155-.035.36-.035.636-.017.12.017.275.034.446.068.172.035.344.07.55.138.189.069.395.137.618.24.207.103.43.224.636.378l1.082-1.443z"/></svg>