<svg viewBox="0 0 39 39" fill="none" xmlns="http://www.w3.org/2000/svg"><path fill-rule="evenodd" clip-rule="evenodd" d="M4.875 2.438a2.437 2.437 0 00-2.438 2.437v29.25a2.437 2.437 0 002.438 2.438h29.25a2.438 2.438 0 002.438-2.438V4.875a2.438 2.438 0 00-2.438-2.438H4.875zm0 36.562A4.875 4.875 0 010 34.125V4.875A4.875 4.875 0 014.875 0h29.25A4.875 4.875 0 0139 4.875v29.25A4.875 4.875 0 0134.125 39H4.875zm6.094-20.719a1.219 1.219 0 000 2.438h14.12l-5.233 5.23a1.22 1.22 0 001.726 1.726l7.312-7.312a1.218 1.218 0 000-1.726l-7.312-7.312a1.22 1.22 0 00-1.726 1.725l5.233 5.231H10.97z"/></svg>
