<svg viewBox="0 0 12 21" fill="none" xmlns="http://www.w3.org/2000/svg"><path d="M4.983 14.283c-1.54-.165-2.926-.555-4.114-1.51-.148-.119-.3-.233-.434-.368-.52-.51-.574-1.1-.16-1.705.35-.518.94-.657 1.556-.361.119.06.232.13.34.208 2.214 1.564 5.256 1.607 7.48.07.214-.179.46-.31.726-.389.246-.073.509-.06.746.038.238.098.437.274.564.502.326.545.32 1.075-.08 1.498a6.025 6.025 0 01-2.174 1.446c-.776.31-1.628.465-2.47.57.128.142.188.211.268.293 1.142 1.18 2.29 2.356 3.43 3.54.388.405.47.905.256 1.375-.234.51-.758.849-1.27.812a1.226 1.226 0 01-.804-.423c-.862-.892-1.74-1.768-2.586-2.676-.246-.266-.366-.215-.582.014-.868.919-1.75 1.823-2.638 2.724-.398.402-.872.475-1.334.245a1.37 1.37 0 01-.575-.522 1.41 1.41 0 01-.205-.756 1.29 1.29 0 01.42-.858l3.388-3.49c.074-.077.144-.158.252-.277z"/><path d="M5.899 10.208a4.956 4.956 0 01-3.514-1.514 5.166 5.166 0 01.032-7.208A4.96 4.96 0 015.959 0c.66.004 1.313.14 1.92.403.608.262 1.16.644 1.622 1.125.463.48.828 1.05 1.074 1.674.247.625.37 1.294.362 1.968-.014 2.788-2.274 5.049-5.038 5.038zM8.387 5.1c0-.328-.062-.653-.185-.956a2.49 2.49 0 00-.53-.81 2.433 2.433 0 00-.796-.54 2.393 2.393 0 00-.937-.187 2.397 2.397 0 00-.945.19c-.299.126-.57.311-.799.546a2.496 2.496 0 00-.53.82 2.537 2.537 0 00-.178.966c.001.328.067.652.192.955.125.302.307.576.536.806.23.23.501.412.8.534.297.122.616.183.938.18.321 0 .64-.065.936-.191a2.43 2.43 0 00.792-.543 2.528 2.528 0 00.706-1.77z"/></svg>
