<svg viewBox="0 0 20 16" fill="none" xmlns="http://www.w3.org/2000/svg">
<path d="M17.945 3.98909C17.9561 4.16 17.9561 4.33818 17.9561 4.51273C17.9561 9.85091 13.8314 16 6.29404 16C3.96975 16 1.81516 15.3345 0 14.1891C0.332042 14.2255 0.649328 14.24 0.988748 14.24C2.90721 14.24 4.67073 13.6 6.07637 12.5164C4.27597 12.48 2.76333 11.3164 2.24682 9.71636C2.8777 9.80727 3.44586 9.80727 4.09519 9.64364C3.16815 9.458 2.3349 8.96175 1.73701 8.23921C1.13912 7.51667 0.813454 6.61239 0.815348 5.68V5.62909C1.35768 5.93091 1.99594 6.11636 2.66372 6.14182C2.10235 5.77307 1.64198 5.27349 1.32341 4.68738C1.00485 4.10127 0.83794 3.44674 0.837485 2.78182C0.837485 2.02909 1.03671 1.34182 1.39458 0.745455C2.42355 1.99395 3.70755 3.01506 5.16312 3.74242C6.6187 4.46978 8.21327 4.8871 9.8432 4.96727C9.26398 2.22182 11.3448 0 13.8462 0C15.0267 0 16.0893 0.487273 16.8382 1.27273C17.7642 1.10182 18.6497 0.76 19.4392 0.301818C19.133 1.23636 18.4911 2.02545 17.6388 2.52364C18.4652 2.43636 19.2621 2.21091 20 1.89455C19.4429 2.70182 18.7456 3.41818 17.945 3.98909Z"/>
</svg>
