<svg viewBox="0 0 22 13" fill="none" xmlns="http://www.w3.org/2000/svg">
<path d="M19.1519 9.04075C19.1519 9.04075 20.8924 10.8425 21.3208 11.6788C21.3331 11.696 21.3393 11.7132 21.3434 11.7218C21.5176 12.0293 21.5586 12.2679 21.4725 12.4464C21.329 12.7431 20.837 12.8893 20.6689 12.9022H17.5939C17.3807 12.9022 16.9338 12.8441 16.3926 12.4528C15.9765 12.1475 15.5665 11.6466 15.1667 11.1585C14.5702 10.4318 14.0536 9.804 13.5329 9.804C13.4668 9.80388 13.401 9.81477 13.3381 9.83625C12.9445 9.96955 12.4402 10.5587 12.4402 12.1282C12.4402 12.6184 12.0712 12.9 11.8109 12.9H10.4025C9.92283 12.9 7.42388 12.7237 5.20988 10.2749C2.49978 7.2756 0.0602828 1.2599 0.0397828 1.204C-0.113967 0.81485 0.203783 0.6063 0.550233 0.6063H3.65598C4.07008 0.6063 4.20538 0.870751 4.29968 1.1051C4.41038 1.37815 4.81628 2.4639 5.48253 3.6851C6.56288 5.676 7.22503 6.4844 7.75598 6.4844C7.85554 6.48317 7.95332 6.45661 8.04093 6.407C8.73383 6.0028 8.60468 3.41205 8.57393 2.87455C8.57393 2.7735 8.57188 1.7157 8.21723 1.2083C7.96303 0.84065 7.53048 0.700901 7.26808 0.649301C7.37429 0.4956 7.51421 0.370971 7.67603 0.28595C8.15163 0.0365497 9.00854 0 9.85929 0H10.3328C11.2553 0.0129 11.4931 0.0752506 11.8273 0.163401C12.5038 0.333251 12.5181 0.7912 12.4587 2.35855C12.4402 2.8036 12.4218 3.3067 12.4218 3.9001C12.4218 4.0291 12.4156 4.1667 12.4156 4.3129C12.3951 5.11055 12.3705 6.0157 12.9076 6.38765C12.9777 6.43372 13.0586 6.4583 13.1413 6.4586C13.3279 6.4586 13.8896 6.4586 15.4107 3.72165C15.8798 2.84071 16.2874 1.92527 16.6304 0.98255C16.6612 0.92665 16.7514 0.754651 16.858 0.688001C16.9367 0.645938 17.0239 0.624541 17.1122 0.62565H20.7632C21.1609 0.62565 21.4336 0.688001 21.4848 0.849251C21.575 1.1051 21.4684 1.88555 19.8018 4.2527L19.0576 5.28255C17.5468 7.35945 17.5468 7.4648 19.1519 9.04075Z"/>
</svg>
